<svg xmlns="http://www.w3.org/2000/svg" width="800" height="1400" viewBox="0 0 800 1400"><rect width="800" height="1400" fill="#212432"/><g font-family="Arial,sans-serif"><text x="64" y="185" fill="#e9e9ec" font-size="60" font-weight="900">AFTER</text><text x="64" y="285" fill="#e9e9ec" font-size="26">PACKAGING DESIGN CONCEPT</text><path d="M64 375H736M64 510H630M64 560H680M64 610H620M64 760H680M64 810H590M64 860H660" stroke="#e9e9ec" opacity=".45" stroke-width="15"/><rect x="64" y="1120" width="5" height="120" fill="#e9e9ec"/><rect x="72" y="1120" width="3" height="120" fill="#e9e9ec"/><rect x="80" y="1120" width="3" height="120" fill="#e9e9ec"/><rect x="88" y="1120" width="5" height="120" fill="#e9e9ec"/><rect x="96" y="1120" width="3" height="120" fill="#e9e9ec"/><rect x="104" y="1120" width="3" height="120" fill="#e9e9ec"/><rect x="112" y="1120" width="5" height="120" fill="#e9e9ec"/><rect x="120" y="1120" width="3" height="120" fill="#e9e9ec"/><rect x="128" y="1120" width="3" height="120" fill="#e9e9ec"/><rect x="136" y="1120" width="5" height="120" fill="#e9e9ec"/><rect x="144" y="1120" width="3" height="120" fill="#e9e9ec"/><rect x="152" y="1120" width="3" height="120" fill="#e9e9ec"/><rect x="160" y="1120" width="5" height="120" fill="#e9e9ec"/><rect x="168" y="1120" width="3" height="120" fill="#e9e9ec"/><rect x="176" y="1120" width="3" height="120" fill="#e9e9ec"/><rect x="184" y="1120" width="5" height="120" fill="#e9e9ec"/><rect x="192" y="1120" width="3" height="120" fill="#e9e9ec"/><rect x="200" y="1120" width="3" height="120" fill="#e9e9ec"/><rect x="208" y="1120" width="5" height="120" fill="#e9e9ec"/><rect x="216" y="1120" width="3" height="120" fill="#e9e9ec"/><rect x="224" y="1120" width="3" height="120" fill="#e9e9ec"/><rect x="232" y="1120" width="5" height="120" fill="#e9e9ec"/><rect x="240" y="1120" width="3" height="120" fill="#e9e9ec"/><rect x="248" y="1120" width="3" height="120" fill="#e9e9ec"/><rect x="256" y="1120" width="5" height="120" fill="#e9e9ec"/><rect x="264" y="1120" width="3" height="120" fill="#e9e9ec"/><rect x="272" y="1120" width="3" height="120" fill="#e9e9ec"/><rect x="280" y="1120" width="5" height="120" fill="#e9e9ec"/><rect x="288" y="1120" width="3" height="120" fill="#e9e9ec"/><rect x="296" y="1120" width="3" height="120" fill="#e9e9ec"/><rect x="304" y="1120" width="5" height="120" fill="#e9e9ec"/><rect x="312" y="1120" width="3" height="120" fill="#e9e9ec"/><rect x="320" y="1120" width="3" height="120" fill="#e9e9ec"/><rect x="328" y="1120" width="5" height="120" fill="#e9e9ec"/><rect x="336" y="1120" width="3" height="120" fill="#e9e9ec"/><rect x="344" y="1120" width="3" height="120" fill="#e9e9ec"/><rect x="352" y="1120" width="5" height="120" fill="#e9e9ec"/><rect x="360" y="1120" width="3" height="120" fill="#e9e9ec"/><rect x="368" y="1120" width="3" height="120" fill="#e9e9ec"/><rect x="376" y="1120" width="5" height="120" fill="#e9e9ec"/><rect x="384" y="1120" width="3" height="120" fill="#e9e9ec"/><rect x="392" y="1120" width="3" height="120" fill="#e9e9ec"/><rect x="400" y="1120" width="5" height="120" fill="#e9e9ec"/><rect x="408" y="1120" width="3" height="120" fill="#e9e9ec"/><rect x="416" y="1120" width="3" height="120" fill="#e9e9ec"/><rect x="424" y="1120" width="5" height="120" fill="#e9e9ec"/><rect x="432" y="1120" width="3" height="120" fill="#e9e9ec"/><rect x="440" y="1120" width="3" height="120" fill="#e9e9ec"/><rect x="448" y="1120" width="5" height="120" fill="#e9e9ec"/><rect x="456" y="1120" width="3" height="120" fill="#e9e9ec"/><rect x="464" y="1120" width="3" height="120" fill="#e9e9ec"/><rect x="472" y="1120" width="5" height="120" fill="#e9e9ec"/><text x="64" y="1320" fill="#e9e9ec" font-size="24">CONCEPT / NOT FOR SALE</text></g></svg>