<svg xmlns="http://www.w3.org/2000/svg" width="2048" height="797" viewBox="0 0 463 180" role="img"><title>SOURCE / top / nominal artwork</title><rect width="463" height="180" fill="#e4ddd3"/><g fill="#343633" aria-label="SOURCE"><title>SOURCE</title><path transform="translate(148.534 100.8) scale(0.432)" d="M30.400 1L30.400 1Q22.300 1 16.650-1.600Q11-4.200 8-8.300Q5-12.400 4.800-17L4.800-17Q4.800-17.800 5.400-18.400Q6-19 6.900-19L6.900-19L8.900-19Q9.900-19 10.450-18.400Q11-17.800 11.100-17L11.100-17Q11.500-14.200 13.600-11.450Q15.700-8.700 19.800-6.850Q23.900-5 30.400-5L30.400-5Q40.200-5 44.700-8.550Q49.200-12.100 49.200-18.100L49.200-18.100Q49.200-22.100 46.850-24.550Q44.500-27 39.700-28.950Q34.900-30.900 27.400-33.300L27.400-33.300Q20.300-35.600 15.700-38.050Q11.100-40.500 8.950-44Q6.800-47.500 6.800-53L6.800-53Q6.800-58.100 9.500-62.150Q12.200-66.200 17.350-68.600Q22.500-71 29.900-71L29.900-71Q35.800-71 40.200-69.400Q44.600-67.800 47.500-65.150Q50.400-62.500 51.900-59.450Q53.400-56.400 53.500-53.500L53.500-53.500Q53.500-52.800 53-52.150Q52.500-51.500 51.400-51.500L51.400-51.500L49.400-51.500Q48.900-51.500 48.150-51.900Q47.400-52.300 47.200-53.500L47.200-53.500Q46.600-58.500 41.950-61.750Q37.300-65 29.900-65L29.900-65Q22.500-65 17.800-62.100Q13.100-59.200 13.100-53L13.100-53Q13.100-49 15.200-46.450Q17.300-43.900 21.800-41.950Q26.300-40 33.400-37.700L33.400-37.700Q40.900-35.300 45.800-32.900Q50.700-30.500 53.100-27.050Q55.500-23.600 55.500-18.100L55.500-18.100Q55.500-12 52.450-7.750Q49.400-3.500 43.800-1.250Q38.200 1 30.400 1Z"/><path transform="translate(174.67 100.8) scale(0.432)" d="M33.100 1L33.100 1Q24.800 1 19-1.950Q13.200-4.900 10.100-11.050Q7-17.200 6.700-26.600L6.700-26.600Q6.600-31.100 6.600-35Q6.600-38.900 6.700-43.400L6.700-43.400Q7-52.700 10.300-58.850Q13.600-65 19.450-68Q25.300-71 33.100-71L33.100-71Q40.900-71 46.750-68Q52.600-65 55.950-58.850Q59.300-52.700 59.500-43.400L59.500-43.400Q59.700-38.900 59.700-35Q59.700-31.100 59.500-26.600L59.500-26.600Q59.300-17.200 56.150-11.050Q53-4.900 47.200-1.950Q41.400 1 33.100 1ZM33.100-5L33.100-5Q41.700-5 47.250-10.200Q52.800-15.400 53.200-27.100L53.200-27.100Q53.400-31.600 53.400-35Q53.400-38.400 53.200-42.900L53.200-42.900Q53-50.700 50.350-55.600Q47.700-60.500 43.250-62.750Q38.800-65 33.100-65L33.100-65Q27.500-65 23.050-62.750Q18.600-60.500 15.950-55.600Q13.300-50.700 13-42.900L13-42.900Q12.900-38.400 12.900-35Q12.900-31.600 13-27.100L13-27.100Q13.400-15.400 19-10.200Q24.600-5 33.100-5Z"/><path transform="translate(203.269 100.8) scale(0.432)" d="M34.600 1L34.600 1Q26.500 1 20.750-2Q15-5 11.900-11.200Q8.800-17.400 8.800-27.100L8.800-27.100L8.800-67.700Q8.800-68.800 9.400-69.400Q10-70 11-70L11-70L12.800-70Q13.900-70 14.500-69.400Q15.100-68.800 15.100-67.700L15.100-67.700L15.100-26.800Q15.100-15.600 20.350-10.300Q25.600-5 34.600-5L34.600-5Q43.500-5 48.750-10.300Q54-15.600 54-26.800L54-26.800L54-67.700Q54-68.800 54.650-69.400Q55.300-70 56.300-70L56.300-70L58.100-70Q59.100-70 59.700-69.400Q60.300-68.800 60.300-67.700L60.300-67.700L60.300-27.100Q60.300-17.400 57.250-11.200Q54.200-5 48.500-2Q42.800 1 34.600 1Z"/><path transform="translate(233.12 100.8) scale(0.432)" d="M13.400 0L11.600 0Q10.600 0 10-0.600Q9.400-1.200 9.400-2.200L9.400-2.200L9.400-67.700Q9.400-68.800 10-69.400Q10.600-70 11.600-70L11.600-70L34.900-70Q45.400-70 51.650-65Q57.900-60 57.900-49.800L57.900-49.800Q57.900-41.800 53.900-37Q49.900-32.200 42.800-30.500L42.800-30.500L58.900-3.100Q59.200-2.500 59.200-2L59.200-2Q59.200-1.200 58.600-0.600Q58 0 57.200 0L57.200 0L56 0Q54.400 0 53.600-0.850Q52.800-1.700 52.200-2.700L52.200-2.700L36.300-29.600L15.700-29.600L15.700-2.200Q15.700-1.200 15.100-0.600Q14.500 0 13.400 0L13.400 0ZM15.700-64L15.700-35.600L34.400-35.600Q43.100-35.600 47.350-39.150Q51.600-42.700 51.600-49.800L51.600-49.800Q51.600-56.900 47.350-60.450Q43.100-64 34.400-64L34.400-64L15.700-64Z"/><path transform="translate(260.768 100.8) scale(0.432)" d="M33.100 1L33.100 1Q24 1 18.250-2.550Q12.500-6.100 9.700-12.200Q6.900-18.300 6.600-26.100L6.600-26.100Q6.500-30.200 6.500-34.900Q6.500-39.600 6.600-43.900L6.600-43.900Q6.900-51.700 9.700-57.850Q12.500-64 18.250-67.500Q24-71 33.100-71L33.100-71Q40.200-71 45.200-69Q50.200-67 53.350-63.750Q56.500-60.500 58.050-56.750Q59.600-53 59.800-49.400L59.800-49.400Q59.900-48.500 59.250-47.950Q58.600-47.400 57.700-47.400L57.700-47.400L55.700-47.400Q54.900-47.400 54.300-47.850Q53.700-48.300 53.500-49.500L53.500-49.500Q51.600-58.400 46.350-61.700Q41.100-65 33.100-65L33.100-65Q24-65 18.650-59.850Q13.300-54.700 12.900-43.400L12.900-43.400Q12.600-35.200 12.900-26.600L12.900-26.600Q13.300-15.300 18.650-10.150Q24-5 33.100-5L33.100-5Q41.100-5 46.350-8.300Q51.600-11.600 53.500-20.500L53.500-20.500Q53.700-21.700 54.300-22.150Q54.900-22.600 55.700-22.600L55.700-22.600L57.700-22.600Q58.600-22.600 59.250-22.050Q59.900-21.500 59.800-20.600L59.800-20.600Q59.600-17 58.050-13.250Q56.500-9.500 53.350-6.250Q50.200-3 45.200-1Q40.200 1 33.100 1Z"/><path transform="translate(288.891 100.8) scale(0.432)" d="M51.400 0L11.600 0Q10.600 0 10-0.600Q9.400-1.200 9.400-2.200L9.400-2.200L9.400-67.700Q9.400-68.800 10-69.400Q10.600-70 11.600-70L11.600-70L50.600-70Q51.700-70 52.300-69.400Q52.900-68.800 52.900-67.700L52.900-67.700L52.900-66.200Q52.900-65.200 52.300-64.600Q51.700-64 50.600-64L50.600-64L15.700-64L15.700-38.500L48.400-38.500Q49.500-38.500 50.100-37.900Q50.700-37.300 50.700-36.200L50.700-36.200L50.700-34.700Q50.700-33.700 50.100-33.100Q49.500-32.500 48.400-32.500L48.400-32.500L15.700-32.500L15.700-6L51.400-6Q52.500-6 53.100-5.400Q53.700-4.800 53.700-3.700L53.700-3.700L53.700-2.200Q53.700-1.200 53.100-0.600Q52.500 0 51.400 0L51.400 0Z"/></g></svg>