<svg xmlns="http://www.w3.org/2000/svg" width="2048" height="1423" viewBox="0 0 360 250" role="img"><title>PACE / top / nominal artwork</title><rect width="360" height="250" fill="#f1f04a"/><g fill="#22232a" aria-label="PACE"><title>PACE</title><path transform="translate(104.37 140) scale(0.6)" d="M13.400 0L11.600 0Q10.600 0 10-0.600Q9.400-1.200 9.400-2.200L9.400-2.200L9.400-67.700Q9.400-68.800 10-69.400Q10.600-70 11.600-70L11.600-70L35.900-70Q42.900-70 48.050-67.650Q53.200-65.300 56.050-60.700Q58.900-56.100 58.900-49.300L58.900-49.300Q58.900-42.500 56.050-37.900Q53.200-33.300 48.050-30.950Q42.900-28.600 35.900-28.600L35.900-28.600L15.700-28.600L15.700-2.200Q15.700-1.200 15.100-0.600Q14.500 0 13.400 0L13.400 0ZM15.700-64L15.700-34.600L35.400-34.600Q44.100-34.600 48.350-38.400Q52.600-42.200 52.600-49.300L52.600-49.300Q52.600-56.400 48.350-60.200Q44.100-64 35.400-64L35.400-64L15.700-64Z"/><path transform="translate(142.05 140) scale(0.6)" d="M6.400 0L4.400 0Q3.600 0 3-0.600Q2.400-1.200 2.400-2L2.400-2Q2.400-2.500 2.600-3.100L2.600-3.100L27.900-68Q28.300-69 28.950-69.500Q29.600-70 30.800-70L30.800-70L34.200-70Q35.400-70 36.050-69.500Q36.700-69 37.100-68L37.100-68L62.400-3.100Q62.600-2.500 62.600-2L62.600-2Q62.600-1.200 62-0.600Q61.400 0 60.600 0L60.600 0L58.600 0Q57.600 0 57.100-0.550Q56.600-1.100 56.400-1.500L56.400-1.500L50.200-17.500L14.800-17.500L8.600-1.500Q8.500-1.100 7.950-0.550Q7.400 0 6.400 0L6.400 0ZM32.500-62.900L17.200-23.500L47.800-23.500L32.500-62.900Z"/><path transform="translate(181.05 140) scale(0.6)" d="M33.100 1L33.100 1Q24 1 18.250-2.550Q12.500-6.100 9.700-12.200Q6.900-18.300 6.600-26.100L6.600-26.100Q6.500-30.200 6.500-34.900Q6.500-39.600 6.600-43.900L6.600-43.900Q6.900-51.700 9.700-57.850Q12.500-64 18.250-67.500Q24-71 33.100-71L33.100-71Q40.200-71 45.200-69Q50.200-67 53.350-63.750Q56.500-60.500 58.050-56.750Q59.600-53 59.800-49.400L59.800-49.400Q59.900-48.500 59.250-47.950Q58.600-47.400 57.700-47.400L57.700-47.400L55.700-47.400Q54.900-47.400 54.300-47.850Q53.700-48.300 53.500-49.500L53.500-49.500Q51.600-58.400 46.350-61.700Q41.100-65 33.100-65L33.100-65Q24-65 18.650-59.850Q13.300-54.700 12.900-43.400L12.900-43.400Q12.600-35.200 12.900-26.600L12.900-26.600Q13.300-15.300 18.650-10.150Q24-5 33.100-5L33.100-5Q41.100-5 46.350-8.300Q51.600-11.600 53.500-20.500L53.500-20.500Q53.700-21.700 54.300-22.150Q54.900-22.600 55.700-22.600L55.700-22.600L57.700-22.600Q58.600-22.600 59.250-22.050Q59.900-21.500 59.800-20.600L59.800-20.600Q59.600-17 58.050-13.250Q56.500-9.500 53.350-6.250Q50.200-3 45.200-1Q40.200 1 33.100 1Z"/><path transform="translate(220.11 140) scale(0.6)" d="M51.400 0L11.600 0Q10.600 0 10-0.600Q9.400-1.200 9.400-2.200L9.400-2.200L9.400-67.700Q9.400-68.800 10-69.400Q10.600-70 11.600-70L11.600-70L50.600-70Q51.700-70 52.300-69.400Q52.900-68.800 52.900-67.700L52.900-67.700L52.900-66.200Q52.900-65.200 52.300-64.600Q51.700-64 50.600-64L50.600-64L15.700-64L15.700-38.500L48.400-38.500Q49.500-38.500 50.100-37.900Q50.700-37.300 50.700-36.200L50.700-36.200L50.700-34.700Q50.700-33.700 50.100-33.100Q49.500-32.500 48.400-32.500L48.400-32.500L15.700-32.500L15.700-6L51.400-6Q52.500-6 53.100-5.400Q53.700-4.800 53.700-3.700L53.700-3.700L53.700-2.200Q53.700-1.200 53.100-0.600Q52.500 0 51.400 0L51.400 0Z"/></g></svg>